HIERARCHY
ROOT Hips
{
	OFFSET	0.000000	0.000000	0.000000
	CHANNELS	6	Xposition	Yposition	Zposition	Zrotation	Xrotation	Yrotation
	JOINT LeftHip
	{
		OFFSET	15.500000	-8.200000	0.000000
		CHANNELS	3	Zrotation	Xrotation	Yrotation
		JOINT LeftKnee
		{
			OFFSET	0.000000	-41.000000	0.000000
			CHANNELS	3	Zrotation	Xrotation	Yrotation
			JOINT LeftAnkle
			{
				OFFSET	0.000000	-41.500000	0.000000
				CHANNELS	3	Zrotation	Xrotation	Yrotation
				End Site
				{
					OFFSET	0.000000	0.000000	22.875000
				}
			}
		}
	}
	JOINT RightHip
	{
		OFFSET	-15.500000	-8.200000	0.000000
		CHANNELS	3	Zrotation	Xrotation	Yrotation
		JOINT RightKnee
		{
			OFFSET	0.000000	-41.000000	0.000000
			CHANNELS	3	Zrotation	Xrotation	Yrotation
			JOINT RightAnkle
			{
				OFFSET	0.000000	-41.500000	0.000000
				CHANNELS	3	Zrotation	Xrotation	Yrotation
				End Site
				{
					OFFSET	0.000000	0.000000	22.875000
				}
			}
		}
	}
	JOINT Chest
	{
		OFFSET	0.000000	16.666667	0.000000
		CHANNELS	3	Zrotation	Xrotation	Yrotation
		JOINT LeftCollar
		{
			OFFSET	4.625000	33.333333	1.541667
			CHANNELS	3	Zrotation	Xrotation	Yrotation
			JOINT LeftShoulder
			{
				OFFSET	13.875000	0.000000	0.000000
				CHANNELS	3	Zrotation	Xrotation	Yrotation
				JOINT LeftElbow
				{
					OFFSET	0.000000	-28.000000	0.000000
					CHANNELS	3	Zrotation	Xrotation	Yrotation
					JOINT LeftWrist
					{
						OFFSET	0.000000	-25.000000	0.000000
						CHANNELS	3	Zrotation	Xrotation	Yrotation
						End Site
						{
							OFFSET	0.000000	-7.500000	0.000000
						}
					}
				}
			}
		}
		JOINT RightCollar
		{
			OFFSET	-4.625000	33.333333	1.541667
			CHANNELS	3	Zrotation	Xrotation	Yrotation
			JOINT RightShoulder
			{
				OFFSET	-13.875000	0.000000	0.000000
				CHANNELS	3	Zrotation	Xrotation	Yrotation
				JOINT RightElbow
				{
					OFFSET	0.000000	-28.000000	0.000000
					CHANNELS	3	Zrotation	Xrotation	Yrotation
					JOINT RightWrist
					{
						OFFSET	0.000000	-25.000000	0.000000
						CHANNELS	3	Zrotation	Xrotation	Yrotation
						End Site
						{
							OFFSET	0.000000	-7.500000	0.000000
						}
					}
				}
			}
		}
		JOINT Neck
		{
			OFFSET	0.000000	33.333333	0.000000
			CHANNELS	3	Zrotation	Xrotation	Yrotation
			JOINT Head
			{
				OFFSET	0.000000	12.000000	0.000000
				CHANNELS	3	Zrotation	Xrotation	Yrotation
				End Site
				{
					OFFSET	0.000000	15.000000	0.000000
				}
			}
		}
	}
}
MOTION
Frames:	37
Frame Time:	0.012000
-67.67	104.52	-63.05	-0.79	-0.02	97.34	1.34	-8.62	-5.80	-1.38	5.28	4.84	3.81	25.78	-0.96	-2.58	2.03	7.57	4.18	2.35	-3.02	-4.77	30.86	5.08	-0.23	4.49	-0.91	0.00	0.00	0.00	6.23	-10.56	33.27	-13.57	-1.38	5.73	0.51	-0.69	0.00	0.00	0.00	0.00	-12.01	-26.86	-42.31	9.34	4.50	14.66	1.69	1.72	0.00	0.00	0.00	0.00	10.02	5.18	-75.18
-67.69	104.52	-63.04	-0.79	-0.02	97.34	1.33	-8.60	-5.80	-1.38	5.28	4.84	3.80	25.77	-0.95	-2.57	2.04	7.57	4.18	2.35	-3.02	-4.78	30.87	5.09	-0.23	4.49	-0.92	0.00	0.00	0.00	6.22	-10.56	33.25	-13.57	-1.38	5.73	0.51	-0.69	0.00	0.00	0.00	0.00	-12.01	-26.86	-42.29	9.33	4.48	14.65	1.69	1.73	0.00	0.00	0.00	0.00	10.02	5.17	-75.17
-67.68	104.52	-63.04	-0.78	-0.04	97.38	1.33	-8.58	-5.80	-1.38	5.27	4.84	3.82	25.78	-0.97	-2.58	2.05	7.59	4.19	2.34	-3.02	-4.78	30.91	5.08	-0.23	4.50	-0.91	0.00	0.00	0.00	6.22	-10.55	33.25	-13.57	-1.36	5.74	0.50	-0.69	0.00	0.00	0.00	0.00	-12.00	-26.85	-42.29	9.34	4.48	14.66	1.68	1.72	0.00	0.00	0.00	0.00	10.02	5.19	-75.23
-67.67	104.51	-63.05	-0.78	-0.04	97.38	1.33	-8.58	-5.80	-1.38	5.27	4.84	3.82	25.78	-0.97	-2.58	2.05	7.58	4.18	2.34	-3.02	-4.76	30.93	5.08	-0.23	4.50	-0.91	0.00	0.00	0.00	6.22	-10.55	33.25	-13.57	-1.36	5.74	0.50	-0.69	0.00	0.00	0.00	0.00	-12.00	-26.85	-42.29	9.34	4.48	14.66	1.68	1.72	0.00	0.00	0.00	0.00	10.02	5.19	-75.23
-67.66	104.51	-63.05	-0.78	-0.04	97.38	1.32	-8.57	-5.80	-1.38	5.27	4.84	3.81	25.79	-0.98	-2.58	2.04	7.58	4.19	2.33	-3.02	-4.80	30.86	5.05	-0.24	4.50	-0.92	0.00	0.00	0.00	6.20	-10.54	33.24	-13.56	-1.34	5.72	0.50	-0.69	0.00	0.00	0.00	0.00	-12.00	-26.85	-42.28	9.34	4.50	14.64	1.69	1.72	0.00	0.00	0.00	0.00	10.03	5.18	-75.23
-67.70	104.51	-63.07	-0.80	-0.06	97.43	1.32	-8.56	-5.82	-1.38	5.24	4.84	3.81	25.80	-0.97	-2.59	2.05	7.59	4.19	2.34	-3.02	-4.81	30.82	5.03	-0.24	4.51	-0.92	0.00	0.00	0.00	6.20	-10.54	33.24	-13.56	-1.32	5.71	0.50	-0.69	0.00	0.00	0.00	0.00	-12.00	-26.85	-42.27	9.34	4.51	14.63	1.71	1.72	0.00	0.00	0.00	0.00	10.07	5.15	-75.27
-67.68	104.51	-63.11	-0.80	-0.06	97.43	1.32	-8.56	-5.82	-1.38	5.24	4.84	3.81	25.80	-0.97	-2.60	2.04	7.60	4.20	2.33	-3.02	-4.81	30.82	5.02	-0.24	4.51	-0.92	0.00	0.00	0.00	6.20	-10.54	33.24	-13.56	-1.32	5.71	0.50	-0.69	0.00	0.00	0.00	0.00	-12.00	-26.85	-42.27	9.34	4.51	14.63	1.71	1.72	0.00	0.00	0.00	0.00	10.07	5.15	-75.27
-67.70	104.50	-63.12	-0.80	-0.06	97.43	1.32	-8.54	-5.82	-1.37	5.23	4.84	3.80	25.80	-0.96	-2.60	2.04	7.59	4.19	2.33	-3.02	-4.78	30.90	5.02	-0.24	4.50	-0.92	0.00	0.00	0.00	6.20	-10.55	33.23	-13.56	-1.26	5.77	0.50	-0.69	0.00	0.00	0.00	0.00	-11.99	-26.86	-42.27	9.33	4.54	14.62	1.72	1.73	0.00	0.00	0.00	0.00	10.07	5.16	-75.27
-67.67	104.50	-63.11	-0.81	-0.06	97.48	1.32	-8.54	-5.83	-1.37	5.23	4.84	3.80	25.80	-0.95	-2.59	2.03	7.59	4.19	2.34	-3.02	-4.77	30.92	5.02	-0.23	4.50	-0.92	0.00	0.00	0.00	6.21	-10.55	33.21	-13.57	-1.24	5.78	0.50	-0.69	0.00	0.00	0.00	0.00	-11.98	-26.87	-42.27	9.31	4.56	14.63	1.72	1.73	0.00	0.00	0.00	0.00	10.09	5.17	-75.31
-67.66	104.50	-63.08	-0.81	-0.06	97.48	1.32	-8.53	-5.83	-1.37	5.24	4.84	3.79	25.79	-0.96	-2.59	2.03	7.59	4.19	2.35	-3.02	-4.76	30.93	5.04	-0.23	4.50	-0.92	0.00	0.00	0.00	6.20	-10.54	33.21	-13.57	-1.23	5.79	0.51	-0.68	0.00	0.00	0.00	0.00	-11.97	-26.86	-42.26	9.32	4.55	14.64	1.71	1.73	0.00	0.00	0.00	0.00	10.09	5.17	-75.30
-67.66	104.50	-63.08	-0.81	-0.06	97.48	1.32	-8.52	-5.83	-1.37	5.24	4.84	3.79	25.80	-0.96	-2.59	2.03	7.59	4.19	2.34	-3.02	-4.72	30.91	5.05	-0.24	4.51	-0.92	0.00	0.00	0.00	6.20	-10.54	33.21	-13.57	-1.23	5.80	0.50	-0.69	0.00	0.00	0.00	0.00	-11.98	-26.87	-42.22	9.32	4.55	14.65	1.71	1.73	0.00	0.00	0.00	0.00	10.09	5.17	-75.30
-67.65	104.50	-63.06	-0.82	-0.09	97.53	1.31	-8.50	-5.82	-1.37	5.24	4.84	3.80	25.80	-0.96	-2.58	2.04	7.58	4.18	2.35	-3.02	-4.72	30.90	5.04	-0.23	4.51	-0.91	0.00	0.00	0.00	6.20	-10.55	33.20	-13.57	-1.21	5.81	0.49	-0.69	0.00	0.00	0.00	0.00	-11.95	-26.85	-42.19	9.32	4.53	14.65	1.71	1.73	0.00	0.00	0.00	0.00	10.12	5.16	-75.32
-67.62	104.50	-63.10	-0.82	-0.09	97.53	1.31	-8.49	-5.82	-1.37	5.22	4.84	3.82	25.80	-0.97	-2.58	2.03	7.57	4.18	2.38	-3.02	-4.71	30.87	5.05	-0.24	4.51	-0.91	0.00	0.00	0.00	6.18	-10.50	33.20	-13.56	-1.23	5.83	0.49	-0.68	0.00	0.00	0.00	0.00	-11.95	-26.84	-42.19	9.33	4.54	14.64	1.72	1.73	0.00	0.00	0.00	0.00	10.13	5.16	-75.33
-67.62	104.50	-63.10	-0.82	-0.09	97.53	1.31	-8.48	-5.82	-1.36	5.21	4.84	3.81	25.79	-0.97	-2.58	2.04	7.56	4.18	2.38	-3.02	-4.71	30.89	5.07	-0.23	4.50	-0.91	0.00	0.00	0.00	6.17	-10.50	33.19	-13.56	-1.24	5.83	0.49	-0.67	0.00	0.00	0.00	0.00	-11.92	-26.84	-42.15	9.32	4.52	14.63	1.72	1.72	0.00	0.00	0.00	0.00	10.13	5.17	-75.33
-67.60	104.50	-63.10	-0.83	-0.08	97.56	1.30	-8.47	-5.82	-1.36	5.21	4.84	3.81	25.78	-0.97	-2.58	2.03	7.55	4.17	2.39	-3.02	-4.70	30.89	5.08	-0.23	4.50	-0.90	0.00	0.00	0.00	6.15	-10.47	33.18	-13.57	-1.32	5.86	0.48	-0.69	0.00	0.00	0.00	0.00	-11.91	-26.85	-42.14	9.32	4.52	14.61	1.72	1.72	0.00	0.00	0.00	0.00	10.12	5.17	-75.37
-67.60	104.50	-63.08	-0.83	-0.08	97.56	1.30	-8.46	-5.80	-1.36	5.23	4.84	3.81	25.77	-0.97	-2.59	2.05	7.59	4.18	2.33	-3.02	-4.67	30.89	5.04	-0.24	4.50	-0.90	0.00	0.00	0.00	6.13	-10.46	33.18	-13.55	-1.32	5.86	0.49	-0.69	0.00	0.00	0.00	0.00	-11.91	-26.85	-42.13	9.33	4.50	14.62	1.72	1.71	0.00	0.00	0.00	0.00	10.13	5.17	-75.38
-67.61	104.51	-63.05	-0.83	-0.08	97.56	1.29	-8.46	-5.77	-1.35	5.27	4.84	3.85	25.76	-1.01	-2.58	2.05	7.59	4.18	2.34	-3.02	-4.67	30.86	5.05	-0.23	4.50	-0.90	0.00	0.00	0.00	6.15	-10.46	33.18	-13.56	-1.30	5.86	0.49	-0.70	0.00	0.00	0.00	0.00	-11.90	-26.86	-42.13	9.32	4.47	14.62	1.72	1.72	0.00	0.00	0.00	0.00	10.13	5.17	-75.38
-67.62	104.51	-63.05	-0.83	-0.09	97.59	1.29	-8.45	-5.77	-1.35	5.26	4.84	3.85	25.74	-1.02	-2.58	2.04	7.58	4.18	2.34	-3.02	-4.68	30.84	5.06	-0.23	4.50	-0.90	0.00	0.00	0.00	6.16	-10.49	33.18	-13.56	-1.21	5.83	0.51	-0.68	0.00	0.00	0.00	0.00	-11.90	-26.85	-42.13	9.33	4.43	14.62	1.73	1.72	0.00	0.00	0.00	0.00	10.12	5.19	-75.39
-67.64	104.51	-63.06	-0.83	-0.09	97.59	1.29	-8.45	-5.78	-1.35	5.25	4.84	3.84	25.74	-1.01	-2.58	2.04	7.59	4.18	2.34	-3.02	-4.71	30.84	5.09	-0.23	4.51	-0.90	0.00	0.00	0.00	6.17	-10.50	33.16	-13.56	-1.21	5.83	0.51	-0.69	0.00	0.00	0.00	0.00	-11.89	-26.85	-42.14	9.33	4.43	14.62	1.73	1.72	0.00	0.00	0.00	0.00	10.11	5.19	-75.39
-67.65	104.50	-63.07	-0.83	-0.09	97.59	1.29	-8.44	-5.80	-1.35	5.24	4.84	3.76	25.72	-0.89	-2.58	2.04	7.59	4.18	2.32	-3.02	-4.72	30.87	5.07	-0.23	4.51	-0.90	0.00	0.00	0.00	6.14	-10.48	33.13	-13.56	-1.20	5.82	0.51	-0.68	0.00	0.00	0.00	0.00	-11.88	-26.84	-42.16	9.34	4.44	14.62	1.71	1.71	0.00	0.00	0.00	0.00	10.11	5.18	-75.39
-67.66	104.50	-63.06	-0.84	-0.08	97.63	1.29	-8.44	-5.80	-1.35	5.24	4.84	3.77	25.72	-0.89	-2.58	2.04	7.59	4.18	2.33	-3.02	-4.72	30.87	5.09	-0.20	4.54	-0.92	0.00	0.00	0.00	6.20	-10.44	33.11	-13.65	-1.17	5.82	0.51	-0.68	0.00	0.00	0.00	0.00	-11.82	-26.81	-42.14	9.30	4.40	14.62	1.73	1.71	0.00	0.00	0.00	0.00	10.09	5.12	-75.41
-67.63	104.50	-63.04	-0.84	-0.08	97.63	1.29	-8.43	-5.80	-1.35	5.24	4.84	3.77	25.73	-0.91	-2.57	2.03	7.57	4.18	2.36	-3.02	-4.75	30.93	5.08	-0.20	4.54	-0.93	0.00	0.00	0.00	6.19	-10.44	33.12	-13.65	-1.18	5.82	0.51	-0.68	0.00	0.00	0.00	0.00	-11.83	-26.82	-42.14	9.30	4.41	14.61	1.72	1.70	0.00	0.00	0.00	0.00	10.09	5.12	-75.41
-67.61	104.50	-63.06	-0.84	-0.08	97.63	1.29	-8.43	-5.81	-1.35	5.24	4.84	3.81	25.74	-1.00	-2.57	2.03	7.57	4.17	2.37	-3.02	-4.76	30.92	5.08	-0.21	4.55	-0.93	0.00	0.00	0.00	6.19	-10.46	33.17	-13.64	-1.20	5.83	0.49	-0.66	0.00	0.00	0.00	0.00	-11.84	-26.81	-42.13	9.31	4.42	14.61	1.72	1.70	0.00	0.00	0.00	0.00	10.10	5.11	-75.41
-67.62	104.51	-63.06	-0.85	-0.10	97.67	1.29	-8.42	-5.80	-1.35	5.24	4.84	3.80	25.76	-0.98	-2.58	2.03	7.58	4.18	2.35	-3.02	-4.74	30.92	5.05	-0.21	4.55	-0.93	0.00	0.00	0.00	6.19	-10.46	33.15	-13.65	-1.20	5.85	0.49	-0.66	0.00	0.00	0.00	0.00	-11.84	-26.83	-42.13	9.30	4.41	14.63	1.71	1.70	0.00	0.00	0.00	0.00	10.16	5.08	-75.48
-67.60	104.51	-63.07	-0.85	-0.10	97.67	1.29	-8.42	-5.80	-1.35	5.24	4.84	3.80	25.76	-0.98	-2.58	2.02	7.58	4.18	2.36	-3.02	-4.73	30.90	5.05	-0.19	4.55	-0.93	0.00	0.00	0.00	6.20	-10.48	33.12	-13.67	-1.20	5.84	0.47	-0.66	0.00	0.00	0.00	0.00	-11.81	-26.86	-42.11	9.27	4.40	14.62	1.71	1.70	0.00	0.00	0.00	0.00	10.14	5.08	-75.48
-67.62	104.50	-63.07	-0.85	-0.10	97.67	1.29	-8.41	-5.83	-1.35	5.19	4.84	3.80	25.77	-0.97	-2.58	2.01	7.58	4.18	2.36	-3.02	-4.73	30.87	5.05	-0.19	4.56	-0.94	0.00	0.00	0.00	6.22	-10.49	33.10	-13.69	-1.17	5.86	0.49	-0.68	0.00	0.00	0.00	0.00	-11.81	-26.87	-42.12	9.26	4.41	14.61	1.72	1.71	0.00	0.00	0.00	0.00	10.14	5.08	-75.47
-67.63	104.50	-63.08	-0.85	-0.13	97.69	1.29	-8.43	-5.84	-1.35	5.17	4.84	3.81	25.73	-0.99	-2.58	2.01	7.58	4.18	2.36	-3.02	-4.73	30.89	5.03	-0.17	4.58	-0.94	0.00	0.00	0.00	6.26	-10.47	33.07	-13.75	-1.15	5.86	0.48	-0.69	0.00	0.00	0.00	0.00	-11.79	-26.85	-42.13	9.25	4.41	14.60	1.73	1.72	0.00	0.00	0.00	0.00	10.15	5.05	-75.48
-67.65	104.50	-63.12	-0.85	-0.13	97.69	1.29	-8.43	-5.83	-1.35	5.18	4.84	3.80	25.72	-0.99	-2.58	2.01	7.59	4.18	2.34	-3.02	-4.75	30.87	5.02	-0.17	4.58	-0.95	0.00	0.00	0.00	6.26	-10.47	33.06	-13.76	-1.16	5.87	0.47	-0.69	0.00	0.00	0.00	0.00	-11.78	-26.84	-42.12	9.25	4.39	14.61	1.74	1.73	0.00	0.00	0.00	0.00	10.15	5.05	-75.48
-67.67	104.51	-63.12	-0.85	-0.13	97.69	1.29	-8.43	-5.83	-1.35	5.18	4.84	3.82	25.76	-0.98	-2.58	2.01	7.59	4.18	2.34	-3.02	-4.74	30.91	5.03	-0.16	4.57	-0.95	0.00	0.00	0.00	6.27	-10.49	33.07	-13.77	-1.16	5.86	0.48	-0.68	0.00	0.00	0.00	0.00	-11.78	-26.84	-42.14	9.25	4.39	14.61	1.75	1.73	0.00	0.00	0.00	0.00	10.15	5.05	-75.48
-67.66	104.51	-63.12	-0.87	-0.10	97.70	1.29	-8.43	-5.82	-1.35	5.18	4.84	3.83	25.77	-0.97	-2.59	2.01	7.60	4.19	2.33	-3.02	-4.76	30.92	5.05	-0.16	4.57	-0.95	0.00	0.00	0.00	6.28	-10.50	33.05	-13.78	-1.14	5.86	0.49	-0.67	0.00	0.00	0.00	0.00	-11.76	-26.84	-42.15	9.24	4.38	14.62	1.75	1.73	0.00	0.00	0.00	0.00	10.14	5.00	-75.48
-67.62	104.51	-63.07	-0.87	-0.10	97.70	1.29	-8.43	-5.82	-1.35	5.17	4.84	3.83	25.77	-0.96	-2.59	2.00	7.60	4.20	2.34	-3.02	-4.76	30.93	5.08	-0.17	4.57	-0.95	0.00	0.00	0.00	6.27	-10.50	33.06	-13.78	-1.12	5.86	0.51	-0.68	0.00	0.00	0.00	0.00	-11.78	-26.83	-42.15	9.25	4.39	14.64	1.76	1.73	0.00	0.00	0.00	0.00	10.15	5.00	-75.48
-67.62	104.51	-63.06	-0.87	-0.10	97.70	1.29	-8.43	-5.81	-1.35	5.17	4.84	3.83	25.79	-0.95	-2.59	2.01	7.60	4.19	2.32	-3.02	-4.79	30.93	5.08	-0.16	4.57	-0.96	0.00	0.00	0.00	6.28	-10.47	33.00	-13.79	-1.10	5.85	0.50	-0.69	0.00	0.00	0.00	0.00	-11.76	-26.82	-42.16	9.24	4.34	14.65	1.76	1.73	0.00	0.00	0.00	0.00	10.14	5.01	-75.47
-67.64	104.51	-63.08	-0.86	-0.10	97.70	1.29	-8.42	-5.80	-1.35	5.17	4.84	3.81	25.82	-0.95	-2.59	2.00	7.60	4.19	2.32	-3.02	-4.78	30.92	5.08	-0.21	4.53	-0.94	0.00	0.00	0.00	6.18	-10.52	33.04	-13.67	-1.16	5.85	0.49	-0.69	0.00	0.00	0.00	0.00	-11.86	-26.85	-42.17	9.29	4.39	14.66	1.74	1.73	0.00	0.00	0.00	0.00	10.16	5.04	-75.49
-67.67	104.51	-63.08	-0.86	-0.10	97.70	1.29	-8.42	-5.80	-1.34	5.17	4.84	3.83	25.83	-0.95	-2.58	2.00	7.59	4.19	2.35	-3.02	-4.77	30.92	5.06	-0.20	4.54	-0.94	0.00	0.00	0.00	6.19	-10.53	33.05	-13.68	-1.15	5.84	0.50	-0.69	0.00	0.00	0.00	0.00	-11.86	-26.86	-42.19	9.29	4.39	14.66	1.73	1.73	0.00	0.00	0.00	0.00	10.16	5.04	-75.49
-67.67	104.51	-63.08	-0.86	-0.10	97.70	1.29	-8.41	-5.80	-1.35	5.17	4.84	3.82	25.79	-0.96	-2.58	2.01	7.58	4.17	2.34	-3.02	-4.76	30.92	5.06	-0.20	4.53	-0.94	0.00	0.00	0.00	6.21	-10.53	33.07	-13.69	-1.16	5.83	0.52	-0.69	0.00	0.00	0.00	0.00	-11.86	-26.87	-42.19	9.28	4.40	14.64	1.73	1.72	0.00	0.00	0.00	0.00	10.15	5.04	-75.49
-67.65	104.51	-63.08	-0.86	-0.13	97.74	1.29	-8.42	-5.81	-1.36	5.20	4.84	3.85	25.81	-1.00	-2.58	2.01	7.59	4.18	2.34	-3.02	-4.73	30.90	5.04	-0.20	4.54	-0.94	0.00	0.00	0.00	6.21	-10.53	33.07	-13.68	-1.14	5.82	0.51	-0.69	0.00	0.00	0.00	0.00	-11.85	-26.85	-42.20	9.28	4.41	14.63	1.73	1.73	0.00	0.00	0.00	0.00	10.15	5.03	-75.54
-67.66	104.51	-63.09	-0.86	-0.13	97.74	1.29	-8.41	-5.81	-1.35	5.19	4.84	3.84	25.80	-0.99	-2.58	2.01	7.58	4.17	2.35	-3.02	-4.73	30.90	5.04	-0.19	4.53	-0.93	0.00	0.00	0.00	6.21	-10.55	33.07	-13.67	-1.14	5.84	0.50	-0.69	0.00	0.00	0.00	0.00	-11.85	-26.82	-42.23	9.30	4.43	14.62	1.73	1.72	0.00	0.00	0.00	0.00	10.14	5.04	-75.55
